# xmcd CD database file generated by Grip 3.2.0
# 
# Track frame offsets:
#       150
#       13050
#       30540
#       60907
#       75372
#       104117
#       131612
# 
# Disc length: 2038 seconds
# 
# Revision: 1
# Processed by: cddbd v1.5.2PL0 Copyright (c) Steve Scherf et al.
# Submitted via: Grip 3.2.0
# 
DISCID=4e07f407
DTITLE=Klaus Weiss - Salt Peanuts
DYEAR=1982
DGENRE=Jazz
TTITLE0=52nd Street Theme
TTITLE1=One Bass Hit
TTITLE2=Round About Midnight
TTITLE3=Dewey Square
TTITLE4=Woody'n You
TTITLE5=Straight, No Chaser
TTITLE6=Salt Peanuts
EXTD=YEAR: 1982
EXTT0=
EXTT1=
EXTT2=
EXTT3=
EXTT4=
EXTT5=
EXTT6=
PLAYORDER=
